<svg width="1682" height="1084" viewBox="0 0 1682 1084" fill="none" xmlns="http://www.w3.org/2000/svg">
<path d="M817.631 230.117C881.177 230.117 932.69 178.604 932.69 115.059C932.69 51.5135 881.177 0 817.631 0C754.086 0 702.573 51.5135 702.573 115.059C702.573 178.604 754.086 230.117 817.631 230.117Z" fill="#3E4095"/>
<path d="M1541.84 113.128C856.992 79.514 818.287 836.682 818.287 836.682H817.003C817.003 836.682 778.253 79.514 93.4497 113.128C93.4497 113.128 557.032 -17.7975 817.645 321.004C1078.21 -17.7975 1541.84 113.128 1541.84 113.128Z" fill="#3E4095"/>
<path d="M280.333 360.208C280.333 360.208 448.901 476.007 522.092 826.166C522.092 826.166 536.313 430.64 654.112 312.221L488.199 498.594L280.333 360.208Z" fill="#3E4095"/>
<path d="M467.224 452.388C505.93 452.388 537.308 421.01 537.308 382.304C537.308 343.598 505.93 312.221 467.224 312.221C428.518 312.221 397.141 343.598 397.141 382.304C397.141 421.01 428.518 452.388 467.224 452.388Z" fill="#3E4095"/>
<path d="M1401.67 362.389C1401.67 362.389 1222.57 483.451 1144.8 849.527C1144.8 849.527 1129.69 436.023 1004.53 312.221L1180.81 507.066L1401.67 362.389Z" fill="#3E4095"/>
<path d="M1191.42 452.388C1152.71 452.388 1121.33 421.01 1121.33 382.304C1121.33 343.598 1152.71 312.221 1191.42 312.221C1230.12 312.221 1261.5 343.598 1261.5 382.304C1261.5 421.01 1230.12 452.388 1191.42 452.388Z" fill="#3E4095"/>
<path d="M0 549.388C0 549.388 187.915 677.42 240.419 849.536C240.419 849.536 207.219 560.503 256.973 475.758L168.377 596.661L0 549.388Z" fill="#3E4095"/>
<path d="M147.146 579.166C171.869 579.166 191.91 559.008 191.91 534.143C191.91 509.278 171.869 489.121 147.146 489.121C122.424 489.121 102.383 509.278 102.383 534.143C102.383 559.008 122.424 579.166 147.146 579.166Z" fill="#3E4095"/>
<path d="M1658.64 968.691C1483.76 947.627 1303.26 936.002 1127.75 955.187C1036.79 965.151 944.692 981.977 868.407 1038.48C852.21 1049.99 838.823 1065.28 829.321 1083.15C819.819 1065.28 806.432 1049.99 790.235 1038.48C713.95 981.977 621.854 965.151 530.891 955.187C355.381 936.002 174.881 947.627 0 968.691C17.9913 952.871 40.1765 949.462 61.7745 941.771C84.337 933.788 107.123 926.504 130.133 919.92C176.265 906.809 222.9 896.233 269.954 887.799C302.875 881.899 335.964 877.004 369.053 872.896C354.682 876.043 340.214 879.466 325.647 883.166C325.647 883.166 770.944 904.852 829.321 1016.2C884.679 911.014 1316.85 885.745 1362.98 883.385C1371.59 884.783 1380.16 886.24 1388.69 887.755C1435.74 896.19 1482.46 906.678 1528.51 919.876C1551.49 926.49 1574.28 933.773 1596.87 941.727C1618.47 949.462 1640.65 952.871 1658.64 968.691Z" fill="#3E4095"/>
<path d="M1354.95 884.402C1309.23 886.704 882.77 916.871 827.916 1019.48C770.07 910.86 327.055 884.189 327.055 884.189C341.489 880.608 355.826 877.269 370.066 874.171C431.652 866.583 493.487 861.681 555.281 858.057C645.416 852.515 735.759 849.531 826.144 849.531C916.529 849.531 1006.87 852.515 1097.01 858.057C1183.24 863.173 1269.46 870.846 1354.95 884.402Z" fill="#F58634"/>
<path d="M1682 549.388C1682 549.388 1494.08 677.42 1441.58 849.536C1441.58 849.536 1474.78 560.503 1425.03 475.758L1513.62 596.661L1682 549.388Z" fill="#3E4095"/>
<path d="M1534.85 579.166C1510.13 579.166 1490.09 559.008 1490.09 534.143C1490.09 509.278 1510.13 489.121 1534.85 489.121C1559.57 489.121 1579.61 509.278 1579.61 534.143C1579.61 559.008 1559.57 579.166 1534.85 579.166Z" fill="#3E4095"/>
</svg>
