<svg width="4366" height="1448" viewBox="0 0 4366 1448" fill="none" xmlns="http://www.w3.org/2000/svg">
<path d="M771.924 442.152C827.18 442.152 871.974 397.358 871.974 342.101C871.974 286.845 827.18 242.051 771.924 242.051C716.667 242.051 671.873 286.845 671.873 342.101C671.873 397.358 716.667 442.152 771.924 442.152Z" fill="white"/>
<path d="M1401.67 340.422C806.15 311.192 772.494 969.595 772.494 969.595H771.378C771.378 969.595 737.682 311.192 142.204 340.422C142.204 340.422 545.317 226.574 771.936 521.183C998.515 226.574 1401.67 340.422 1401.67 340.422Z" fill="white"/>
<path d="M304.711 555.271C304.711 555.271 451.29 655.965 514.935 960.45C514.935 960.45 527.301 616.516 629.734 513.543L485.462 675.606L304.711 555.271Z" fill="white"/>
<path d="M467.224 635.427C500.881 635.427 528.165 608.142 528.165 574.485C528.165 540.828 500.881 513.543 467.224 513.543C433.566 513.543 406.282 540.828 406.282 574.485C406.282 608.142 433.566 635.427 467.224 635.427Z" fill="white"/>
<path d="M1279.78 557.168C1279.78 557.168 1124.04 662.438 1056.42 980.764C1056.42 980.764 1043.28 621.196 934.444 513.543L1087.73 682.973L1279.78 557.168Z" fill="white"/>
<path d="M1096.95 635.427C1063.3 635.427 1036.01 608.142 1036.01 574.485C1036.01 540.828 1063.3 513.543 1096.95 513.543C1130.61 513.543 1157.9 540.828 1157.9 574.485C1157.9 608.142 1130.61 635.427 1096.95 635.427Z" fill="white"/>
<path d="M1864.23 1004H1691.23V243.964H1864.23V1004ZM2476.01 1004H2305V620.982C2305 600.981 2295 590.98 2275 590.98H2152.99C2132.99 590.98 2122.99 600.981 2122.99 620.982V1004H1949.98V554.979C1949.98 462.974 1995.98 416.972 2086.99 416.972H2340C2431 416.972 2476.01 462.974 2476.01 555.979V1004ZM3091.36 1004H2699.34C2606.34 1004 2559.34 959.998 2559.34 870.994V554.979C2559.34 462.974 2605.34 416.972 2696.34 416.972H2918.36V243.964H3091.36V1004ZM2918.36 830.992V590.98H2762.35C2742.35 590.98 2732.35 600.981 2732.35 620.982V798.99C2732.35 819.991 2742.35 830.992 2762.35 830.992H2918.36ZM3564.6 1004H3317.58C3224.58 1004 3177.58 959.998 3177.58 870.994V416.972H3350.59V798.99C3350.59 819.991 3360.59 830.992 3380.59 830.992H3497.59C3517.59 830.992 3527.59 820.991 3527.59 800.99V416.972H3698.6V866.994C3698.6 957.998 3653.6 1004 3564.6 1004ZM4180.07 1004H3782.05V812.991H4123.07C4143.07 812.991 4153.07 802.99 4153.07 782.99V732.987C4153.07 712.986 4143.07 702.986 4123.07 702.986H3921.06C3828.05 702.986 3781.05 658.984 3781.05 569.979V388.971C3781.05 291.966 3826.05 243.964 3916.06 243.964H4308.08V434.973H3984.06C3964.06 434.973 3954.06 444.974 3954.06 464.974V513.977C3954.06 533.978 3964.06 543.978 3984.06 543.978H4192.07C4281.08 543.978 4325.08 588.98 4325.08 677.985V855.993C4325.08 954.998 4277.08 1004 4180.07 1004Z" fill="white"/>
<g clip-path="url(#clip0_268_54)">
<path d="M1813.6 1383.84H1723.39C1693.63 1383.84 1678.6 1369.76 1678.6 1341.29V1140.7H1733.94V1313.13C1733.94 1319.53 1737.14 1322.73 1743.54 1322.73H1793.77C1800.17 1322.73 1803.37 1319.53 1803.37 1313.13V1140.7H1858.39V1341.29C1858.39 1369.76 1843.36 1383.84 1813.6 1383.84ZM2054.01 1383.84H1999.31V1261.31C1999.31 1254.91 1996.11 1251.71 1989.71 1251.71H1950.68C1944.28 1251.71 1941.08 1254.91 1941.08 1261.31V1383.84H1885.73V1240.19C1885.73 1210.76 1900.45 1196.04 1929.56 1196.04H2010.5C2039.62 1196.04 2054.01 1210.76 2054.01 1240.51V1383.84ZM2124.82 1180.69H2093.47C2085.79 1180.69 2081.95 1176.53 2081.95 1168.21V1146.77C2081.95 1138.46 2086.11 1134.3 2094.75 1134.3H2124.82C2132.82 1134.3 2136.98 1138.46 2136.98 1146.77V1168.21C2136.98 1176.53 2132.82 1180.69 2124.82 1180.69ZM2137.3 1383.84H2081.95V1196.04H2137.3V1383.84ZM2275.74 1383.84H2223.27L2152.25 1196.04H2212.08L2250.47 1304.18L2288.86 1196.04H2349L2275.74 1383.84ZM2471.7 1267.06V1253.95C2471.7 1249.79 2469.46 1247.55 2465.31 1247.55H2418.6C2414.44 1247.55 2412.2 1249.79 2412.2 1253.95V1267.06C2412.2 1271.22 2414.44 1273.46 2418.6 1273.46H2465.31C2469.46 1273.46 2471.7 1271.22 2471.7 1267.06ZM2518.73 1383.84H2401.64C2371.89 1383.84 2356.85 1369.12 2356.85 1339.69V1240.19C2356.85 1210.76 2371.25 1196.04 2400.04 1196.04H2485.78C2512.97 1196.04 2526.73 1210.44 2526.73 1238.91V1266.43C2526.73 1295.54 2512.97 1309.93 2485.78 1309.93H2422.12C2418.6 1309.93 2415.08 1309.29 2412.2 1307.69V1321.77C2412.2 1328.17 2415.4 1331.37 2421.8 1331.37H2518.73V1383.84ZM2608.12 1383.84H2552.46V1240.19C2552.46 1211.08 2566.22 1196.04 2596.61 1196.04H2658.67V1251.39H2617.72C2611.32 1251.39 2608.12 1254.59 2608.12 1260.99V1383.84ZM2804.47 1383.84H2676.82V1331.37H2782.71C2786.23 1331.37 2788.15 1329.45 2788.15 1325.61V1314.41C2788.15 1310.89 2786.23 1309.29 2782.71 1309.29H2712.65C2683.54 1309.29 2674.58 1296.5 2674.58 1268.34V1239.87C2674.58 1210.76 2688.97 1196.04 2718.09 1196.04H2839.02V1248.19H2734.08C2730.56 1248.19 2728.65 1250.11 2728.65 1253.95V1265.15C2728.65 1268.66 2730.56 1270.26 2734.08 1270.26H2804.47C2831.02 1270.26 2844.14 1283.7 2844.14 1310.57V1339.69C2844.14 1369.12 2831.02 1383.84 2804.47 1383.84ZM2982.15 1325.93V1312.81C2982.15 1308.65 2979.91 1306.42 2975.75 1306.42H2929.04C2924.88 1306.42 2922.64 1308.65 2922.64 1312.81V1325.93C2922.64 1330.09 2924.88 1332.33 2929.04 1332.33H2975.75C2979.91 1332.33 2982.15 1330.09 2982.15 1325.93ZM2994.31 1383.84H2908.57C2881.37 1383.84 2867.62 1369.76 2867.62 1341.29V1313.45C2867.62 1284.34 2881.37 1269.94 2908.57 1269.94H2971.59C2975.75 1269.94 2979.27 1270.9 2982.15 1272.18V1258.11C2982.15 1251.71 2978.95 1248.51 2972.55 1248.51H2874.98V1196.04H2992.71C3022.46 1196.04 3037.5 1210.76 3037.5 1240.19V1339.69C3037.5 1369.12 3023.1 1383.84 2994.31 1383.84ZM3119.87 1383.84H3064.52V1140.7H3119.87V1383.84ZM3370.52 1383.84H3243.19V1322.73H3352.29C3358.69 1322.73 3361.89 1319.53 3361.89 1313.13V1297.14C3361.89 1290.74 3358.69 1287.54 3352.29 1287.54H3287.66C3257.91 1287.54 3242.87 1273.46 3242.87 1244.99V1187.08C3242.87 1156.05 3257.27 1140.7 3286.06 1140.7H3411.47V1201.8H3307.82C3301.42 1201.8 3298.22 1205 3298.22 1211.4V1227.07C3298.22 1233.47 3301.42 1236.67 3307.82 1236.67H3374.36C3402.84 1236.67 3416.91 1251.07 3416.91 1279.54V1336.49C3416.91 1368.16 3401.56 1383.84 3370.52 1383.84ZM3581.05 1383.84H3487.31C3457.56 1383.84 3442.52 1369.76 3442.52 1341.29V1240.19C3442.52 1210.76 3457.24 1196.04 3486.35 1196.04H3580.41V1251.71H3507.46C3501.07 1251.71 3497.87 1254.91 3497.87 1261.31V1318.25C3497.87 1324.97 3501.07 1328.49 3507.46 1328.49H3581.05V1383.84ZM3772.05 1383.84H3716.7V1261.31C3716.7 1254.91 3713.5 1251.71 3707.1 1251.71H3658.79V1383.84H3603.45V1140.7H3658.79V1196.04H3728.22C3757.33 1196.04 3772.05 1210.76 3772.05 1240.19V1383.84ZM3913.85 1318.89V1261.31C3913.85 1254.91 3910.65 1251.71 3904.26 1251.71H3863.63C3857.23 1251.71 3854.03 1254.91 3854.03 1261.31V1318.25C3854.03 1324.97 3857.23 1328.49 3863.63 1328.49H3904.26C3910.65 1328.49 3913.85 1325.29 3913.85 1318.89ZM3925.69 1383.84H3843.47C3813.72 1383.84 3798.68 1369.76 3798.68 1341.29V1240.19C3798.68 1210.76 3813.4 1196.04 3842.51 1196.04H3925.05C3954.16 1196.04 3968.56 1210.76 3968.56 1240.51V1340.01C3968.56 1369.12 3954.16 1383.84 3925.69 1383.84ZM4109.43 1318.89V1261.31C4109.43 1254.91 4106.23 1251.71 4099.83 1251.71H4059.2C4052.8 1251.71 4049.6 1254.91 4049.6 1261.31V1318.25C4049.6 1324.97 4052.8 1328.49 4059.2 1328.49H4099.83C4106.23 1328.49 4109.43 1325.29 4109.43 1318.89ZM4121.27 1383.84H4039.05C4009.29 1383.84 3994.26 1369.76 3994.26 1341.29V1240.19C3994.26 1210.76 4008.97 1196.04 4038.09 1196.04H4120.63C4149.74 1196.04 4164.14 1210.76 4164.14 1240.51V1340.01C4164.14 1369.12 4149.74 1383.84 4121.27 1383.84ZM4246.46 1383.84H4191.11V1140.7H4246.46V1383.84Z" fill="white"/>
</g>
<path d="M60.9438 719.776C60.9438 719.776 224.347 831.107 270.003 980.773C270.003 980.773 241.134 729.441 284.397 655.75L207.358 760.883L60.9438 719.776Z" fill="white"/>
<path d="M188.897 745.67C210.394 745.67 227.821 728.142 227.821 706.521C227.821 684.899 210.394 667.371 188.897 667.371C167.399 667.371 149.972 684.899 149.972 706.521C149.972 728.142 167.399 745.67 188.897 745.67Z" fill="white"/>
<path d="M1503.23 1084.38C1351.16 1066.06 1194.21 1055.96 1041.59 1072.64C962.493 1081.3 882.411 1095.93 816.076 1145.07C801.992 1155.07 790.351 1168.37 782.089 1183.91C773.826 1168.37 762.186 1155.07 748.101 1145.07C681.766 1095.93 601.684 1081.3 522.586 1072.64C369.969 1055.96 213.013 1066.06 60.9438 1084.38C76.5883 1070.62 95.8796 1067.66 114.66 1060.97C134.28 1054.03 154.094 1047.7 174.102 1041.97C214.217 1030.57 254.769 1021.37 295.685 1014.04C324.312 1008.91 353.085 1004.65 381.858 1001.08C369.362 1003.82 356.78 1006.79 344.114 1010.01C344.114 1010.01 731.326 1028.87 782.089 1125.7C830.226 1034.23 1206.02 1012.25 1246.14 1010.2C1253.63 1011.42 1261.08 1012.69 1268.49 1014C1309.41 1021.34 1350.03 1030.46 1390.07 1041.93C1410.06 1047.68 1429.87 1054.02 1449.52 1060.93C1468.3 1067.66 1487.59 1070.62 1503.23 1084.38Z" fill="white"/>
<path d="M1239.15 1011.09C1199.4 1013.09 828.566 1039.32 780.867 1128.55C730.566 1034.09 345.338 1010.9 345.338 1010.9C357.889 1007.79 370.356 1004.89 382.738 1002.19C436.291 995.593 490.061 991.33 543.794 988.179C622.173 983.36 700.731 980.766 779.326 980.766C857.921 980.766 936.48 983.36 1014.86 988.179C1089.84 992.628 1164.82 999.3 1239.15 1011.09Z" fill="white"/>
<path d="M1523.54 719.776C1523.54 719.776 1360.14 831.107 1314.49 980.773C1314.49 980.773 1343.35 729.441 1300.09 655.75L1377.13 760.883L1523.54 719.776Z" fill="white"/>
<path d="M1395.59 745.67C1374.09 745.67 1356.66 728.142 1356.66 706.521C1356.66 684.899 1374.09 667.371 1395.59 667.371C1417.09 667.371 1434.51 684.899 1434.51 706.521C1434.51 728.142 1417.09 745.67 1395.59 745.67Z" fill="white"/>
<path d="M16.3054 1311.7V1334.31H40.9577V1341.59H16.3054V1364.88H43.8694V1372.16H7.47333V1304.42H43.8694V1311.7H16.3054ZM83.1476 1318.01C89.618 1318.01 94.859 1319.98 98.8707 1323.93C102.882 1327.81 104.888 1333.44 104.888 1340.81V1372.16H96.1531V1342.08C96.1531 1336.77 94.8267 1332.73 92.1738 1329.94C89.5209 1327.1 85.8975 1325.67 81.3035 1325.67C76.6448 1325.67 72.9243 1327.13 70.1421 1330.04C67.4245 1332.95 66.0657 1337.19 66.0657 1342.76V1372.16H57.2336V1318.98H66.0657V1326.55C67.8127 1323.83 70.1744 1321.73 73.1508 1320.24C76.1919 1318.75 79.5242 1318.01 83.1476 1318.01ZM116.016 1345.47C116.016 1339.97 117.115 1335.19 119.315 1331.11C121.515 1326.97 124.556 1323.77 128.439 1321.5C132.386 1319.24 136.883 1318.1 141.93 1318.1C148.465 1318.1 153.835 1319.69 158.041 1322.86C162.311 1326.03 165.126 1330.43 166.485 1336.06H156.973C156.067 1332.82 154.288 1330.27 151.635 1328.39C149.047 1326.52 145.812 1325.58 141.93 1325.58C136.883 1325.58 132.806 1327.32 129.7 1330.82C126.595 1334.25 125.042 1339.13 125.042 1345.47C125.042 1351.88 126.595 1356.83 129.7 1360.32C132.806 1363.82 136.883 1365.56 141.93 1365.56C145.812 1365.56 149.047 1364.66 151.635 1362.85C154.223 1361.03 156.003 1358.45 156.973 1355.08H166.485C165.061 1360.52 162.214 1364.88 157.944 1368.18C153.673 1371.42 148.335 1373.04 141.93 1373.04C136.883 1373.04 132.386 1371.91 128.439 1369.64C124.556 1367.38 121.515 1364.17 119.315 1360.03C117.115 1355.89 116.016 1351.04 116.016 1345.47ZM201.466 1373.04C196.484 1373.04 191.954 1371.91 187.878 1369.64C183.866 1367.38 180.696 1364.17 178.367 1360.03C176.102 1355.83 174.97 1350.97 174.97 1345.47C174.97 1340.04 176.134 1335.25 178.464 1331.11C180.858 1326.9 184.093 1323.7 188.169 1321.5C192.246 1319.24 196.807 1318.1 201.854 1318.1C206.901 1318.1 211.463 1319.24 215.539 1321.5C219.615 1323.7 222.818 1326.87 225.148 1331.01C227.542 1335.15 228.739 1339.97 228.739 1345.47C228.739 1350.97 227.509 1355.83 225.051 1360.03C222.657 1364.17 219.389 1367.38 215.248 1369.64C211.107 1371.91 206.513 1373.04 201.466 1373.04ZM201.466 1365.27C204.636 1365.27 207.613 1364.53 210.395 1363.04C213.177 1361.55 215.41 1359.32 217.092 1356.34C218.839 1353.37 219.712 1349.74 219.712 1345.47C219.712 1341.2 218.871 1337.58 217.189 1334.6C215.507 1331.63 213.307 1329.43 210.589 1328C207.872 1326.52 204.928 1325.77 201.757 1325.77C198.522 1325.77 195.545 1326.52 192.828 1328C190.175 1329.43 188.04 1331.63 186.422 1334.6C184.805 1337.58 183.996 1341.2 183.996 1345.47C183.996 1349.81 184.772 1353.46 186.325 1356.44C187.943 1359.42 190.078 1361.65 192.731 1363.14C195.384 1364.56 198.295 1365.27 201.466 1365.27ZM287.521 1318.98V1372.16H278.689V1364.3C277.006 1367.02 274.645 1369.16 271.603 1370.71C268.627 1372.2 265.327 1372.94 261.704 1372.94C257.563 1372.94 253.842 1372.1 250.542 1370.42C247.242 1368.67 244.622 1366.08 242.681 1362.65C240.804 1359.22 239.866 1355.05 239.866 1350.13V1318.98H248.601V1348.97C248.601 1354.21 249.928 1358.25 252.58 1361.1C255.233 1363.88 258.857 1365.27 263.451 1365.27C268.174 1365.27 271.895 1363.82 274.612 1360.91C277.33 1357.99 278.689 1353.76 278.689 1348.19V1318.98H287.521ZM311.265 1327.62C312.818 1324.57 315.018 1322.21 317.865 1320.53C320.777 1318.85 324.303 1318.01 328.444 1318.01V1327.13H326.115C316.215 1327.13 311.265 1332.5 311.265 1343.24V1372.16H302.433V1318.98H311.265V1327.62ZM335.34 1345.38C335.34 1339.94 336.44 1335.19 338.64 1331.11C340.84 1326.97 343.848 1323.77 347.666 1321.5C351.548 1319.24 355.851 1318.1 360.574 1318.1C365.233 1318.1 369.277 1319.11 372.706 1321.11C376.136 1323.12 378.692 1325.64 380.374 1328.68V1318.98H389.303V1372.16H380.374V1362.26C378.627 1365.37 376.006 1367.96 372.512 1370.03C369.083 1372.03 365.071 1373.04 360.477 1373.04C355.754 1373.04 351.483 1371.87 347.666 1369.54C343.848 1367.21 340.84 1363.95 338.64 1359.74C336.44 1355.54 335.34 1350.75 335.34 1345.38ZM380.374 1345.47C380.374 1341.46 379.565 1337.97 377.947 1334.99C376.33 1332.02 374.13 1329.75 371.348 1328.2C368.63 1326.58 365.621 1325.77 362.321 1325.77C359.021 1325.77 356.013 1326.55 353.295 1328.1C350.578 1329.65 348.41 1331.92 346.792 1334.89C345.175 1337.87 344.366 1341.36 344.366 1345.38C344.366 1349.45 345.175 1353.01 346.792 1356.05C348.41 1359.03 350.578 1361.33 353.295 1362.94C356.013 1364.5 359.021 1365.27 362.321 1365.27C365.621 1365.27 368.63 1364.5 371.348 1362.94C374.13 1361.33 376.33 1359.03 377.947 1356.05C379.565 1353.01 380.374 1349.49 380.374 1345.47ZM426.163 1318.1C430.757 1318.1 434.769 1319.11 438.198 1321.11C441.692 1323.12 444.28 1325.64 445.963 1328.68V1318.98H454.892V1373.33C454.892 1378.18 453.857 1382.48 451.786 1386.24C449.715 1390.05 446.739 1393.03 442.857 1395.17C439.039 1397.3 434.575 1398.37 429.463 1398.37C422.475 1398.37 416.652 1396.72 411.993 1393.42C407.334 1390.12 404.584 1385.62 403.743 1379.93H412.478C413.449 1383.16 415.455 1385.75 418.496 1387.69C421.537 1389.7 425.193 1390.7 429.463 1390.7C434.316 1390.7 438.263 1389.18 441.304 1386.14C444.41 1383.1 445.963 1378.83 445.963 1373.33V1362.17C444.216 1365.27 441.627 1367.86 438.198 1369.93C434.769 1372 430.757 1373.04 426.163 1373.04C421.44 1373.04 417.137 1371.87 413.255 1369.54C409.437 1367.21 406.428 1363.95 404.228 1359.74C402.029 1355.54 400.929 1350.75 400.929 1345.38C400.929 1339.94 402.029 1335.19 404.228 1331.11C406.428 1326.97 409.437 1323.77 413.255 1321.5C417.137 1319.24 421.44 1318.1 426.163 1318.1ZM445.963 1345.47C445.963 1341.46 445.154 1337.97 443.536 1334.99C441.919 1332.02 439.719 1329.75 436.936 1328.2C434.219 1326.58 431.21 1325.77 427.91 1325.77C424.61 1325.77 421.602 1326.55 418.884 1328.1C416.166 1329.65 413.999 1331.92 412.381 1334.89C410.764 1337.87 409.955 1341.36 409.955 1345.38C409.955 1349.45 410.764 1353.01 412.381 1356.05C413.999 1359.03 416.166 1361.33 418.884 1362.94C421.602 1364.5 424.61 1365.27 427.91 1365.27C431.21 1365.27 434.219 1364.5 436.936 1362.94C439.719 1361.33 441.919 1359.03 443.536 1356.05C445.154 1353.01 445.963 1349.49 445.963 1345.47ZM518.345 1343.53C518.345 1345.21 518.248 1346.99 518.054 1348.87H475.544C475.867 1354.11 477.646 1358.22 480.882 1361.2C484.182 1364.11 488.161 1365.56 492.82 1365.56C496.637 1365.56 499.808 1364.69 502.331 1362.94C504.919 1361.13 506.731 1358.74 507.766 1355.76H517.278C515.854 1360.87 513.007 1365.05 508.737 1368.28C504.466 1371.45 499.161 1373.04 492.82 1373.04C487.773 1373.04 483.243 1371.91 479.232 1369.64C475.285 1367.38 472.179 1364.17 469.914 1360.03C467.65 1355.83 466.517 1350.97 466.517 1345.47C466.517 1339.97 467.617 1335.15 469.817 1331.01C472.017 1326.87 475.091 1323.7 479.038 1321.5C483.049 1319.24 487.643 1318.1 492.82 1318.1C497.866 1318.1 502.331 1319.2 506.213 1321.4C510.096 1323.6 513.072 1326.64 515.142 1330.53C517.278 1334.34 518.345 1338.68 518.345 1343.53ZM509.222 1341.69C509.222 1338.32 508.478 1335.44 506.99 1333.05C505.502 1330.59 503.463 1328.75 500.875 1327.52C498.352 1326.22 495.537 1325.58 492.431 1325.58C487.967 1325.58 484.149 1327 480.979 1329.85C477.873 1332.69 476.094 1336.64 475.641 1341.69H509.222ZM568.302 1351.69C565.002 1351.69 562.187 1350.55 559.858 1348.29C557.593 1345.96 556.461 1343.14 556.461 1339.84C556.461 1336.48 557.593 1333.67 559.858 1331.4C562.187 1329.07 565.002 1327.91 568.302 1327.91C571.667 1327.91 574.514 1329.07 576.843 1331.4C579.172 1333.67 580.337 1336.48 580.337 1339.84C580.337 1343.14 579.172 1345.96 576.843 1348.29C574.514 1350.55 571.667 1351.69 568.302 1351.69ZM630.584 1311.7V1334.31H655.236V1341.59H630.584V1364.88H658.148V1372.16H621.752V1304.42H658.148V1311.7H630.584ZM697.426 1318.01C703.897 1318.01 709.138 1319.98 713.149 1323.93C717.161 1327.81 719.167 1333.44 719.167 1340.81V1372.16H710.432V1342.08C710.432 1336.77 709.105 1332.73 706.452 1329.94C703.8 1327.1 700.176 1325.67 695.582 1325.67C690.923 1325.67 687.203 1327.13 684.421 1330.04C681.703 1332.95 680.344 1337.19 680.344 1342.76V1372.16H671.512V1318.98H680.344V1326.55C682.091 1323.83 684.453 1321.73 687.429 1320.24C690.47 1318.75 693.803 1318.01 697.426 1318.01ZM742.426 1300.34V1372.16H733.594V1300.34H742.426ZM762.041 1310.34C760.358 1310.34 758.935 1309.76 757.77 1308.59C756.605 1307.43 756.023 1306 756.023 1304.32C756.023 1302.64 756.605 1301.22 757.77 1300.05C758.935 1298.89 760.358 1298.3 762.041 1298.3C763.658 1298.3 765.017 1298.89 766.117 1300.05C767.282 1301.22 767.864 1302.64 767.864 1304.32C767.864 1306 767.282 1307.43 766.117 1308.59C765.017 1309.76 763.658 1310.34 762.041 1310.34ZM766.311 1318.98V1372.16H757.479V1318.98H766.311ZM803.299 1318.1C807.893 1318.1 811.904 1319.11 815.334 1321.11C818.828 1323.12 821.416 1325.64 823.098 1328.68V1318.98H832.027V1373.33C832.027 1378.18 830.992 1382.48 828.921 1386.24C826.851 1390.05 823.874 1393.03 819.992 1395.17C816.175 1397.3 811.71 1398.37 806.598 1398.37C799.61 1398.37 793.787 1396.72 789.128 1393.42C784.47 1390.12 781.72 1385.62 780.879 1379.93H789.614C790.584 1383.16 792.59 1385.75 795.631 1387.69C798.672 1389.7 802.328 1390.7 806.598 1390.7C811.451 1390.7 815.398 1389.18 818.439 1386.14C821.545 1383.1 823.098 1378.83 823.098 1373.33V1362.17C821.351 1365.27 818.763 1367.86 815.334 1369.93C811.904 1372 807.893 1373.04 803.299 1373.04C798.575 1373.04 794.272 1371.87 790.39 1369.54C786.573 1367.21 783.564 1363.95 781.364 1359.74C779.164 1355.54 778.064 1350.75 778.064 1345.38C778.064 1339.94 779.164 1335.19 781.364 1331.11C783.564 1326.97 786.573 1323.77 790.39 1321.5C794.272 1319.24 798.575 1318.1 803.299 1318.1ZM823.098 1345.47C823.098 1341.46 822.289 1337.97 820.672 1334.99C819.054 1332.02 816.854 1329.75 814.072 1328.2C811.354 1326.58 808.345 1325.77 805.046 1325.77C801.746 1325.77 798.737 1326.55 796.019 1328.1C793.302 1329.65 791.134 1331.92 789.517 1334.89C787.899 1337.87 787.09 1341.36 787.09 1345.38C787.09 1349.45 787.899 1353.01 789.517 1356.05C791.134 1359.03 793.302 1361.33 796.019 1362.94C798.737 1364.5 801.746 1365.27 805.046 1365.27C808.345 1365.27 811.354 1364.5 814.072 1362.94C816.854 1361.33 819.054 1359.03 820.672 1356.05C822.289 1353.01 823.098 1349.49 823.098 1345.47ZM873.352 1318.01C877.364 1318.01 880.987 1318.88 884.222 1320.63C887.457 1322.31 889.981 1324.87 891.793 1328.29C893.669 1331.72 894.607 1335.9 894.607 1340.81V1372.16H885.872V1342.08C885.872 1336.77 884.546 1332.73 881.893 1329.94C879.24 1327.1 875.617 1325.67 871.023 1325.67C866.364 1325.67 862.643 1327.13 859.861 1330.04C857.143 1332.95 855.785 1337.19 855.785 1342.76V1372.16H846.953V1300.34H855.785V1326.55C857.532 1323.83 859.926 1321.73 862.967 1320.24C866.073 1318.75 869.534 1318.01 873.352 1318.01ZM919.808 1326.26V1357.61C919.808 1360.19 920.358 1362.04 921.458 1363.14C922.558 1364.17 924.466 1364.69 927.184 1364.69H933.687V1372.16H925.728C920.811 1372.16 917.122 1371.03 914.664 1368.77C912.205 1366.5 910.976 1362.78 910.976 1357.61V1326.26H904.085V1318.98H910.976V1305.58H919.808V1318.98H933.687V1326.26H919.808ZM992.916 1343.53C992.916 1345.21 992.819 1346.99 992.625 1348.87H950.114C950.438 1354.11 952.217 1358.22 955.452 1361.2C958.752 1364.11 962.732 1365.56 967.39 1365.56C971.208 1365.56 974.378 1364.69 976.902 1362.94C979.49 1361.13 981.302 1358.74 982.337 1355.76H991.848C990.425 1360.87 987.578 1365.05 983.307 1368.28C979.037 1371.45 973.731 1373.04 967.39 1373.04C962.343 1373.04 957.814 1371.91 953.802 1369.64C949.855 1367.38 946.75 1364.17 944.485 1360.03C942.22 1355.83 941.088 1350.97 941.088 1345.47C941.088 1339.97 942.188 1335.15 944.388 1331.01C946.588 1326.87 949.661 1323.7 953.608 1321.5C957.62 1319.24 962.214 1318.1 967.39 1318.1C972.437 1318.1 976.902 1319.2 980.784 1321.4C984.666 1323.6 987.643 1326.64 989.713 1330.53C991.848 1334.34 992.916 1338.68 992.916 1343.53ZM983.793 1341.69C983.793 1338.32 983.049 1335.44 981.56 1333.05C980.072 1330.59 978.034 1328.75 975.446 1327.52C972.922 1326.22 970.108 1325.58 967.002 1325.58C962.537 1325.58 958.72 1327 955.549 1329.85C952.444 1332.69 950.664 1336.64 950.211 1341.69H983.793ZM1030.49 1318.01C1036.96 1318.01 1042.2 1319.98 1046.21 1323.93C1050.22 1327.81 1052.23 1333.44 1052.23 1340.81V1372.16H1043.49V1342.08C1043.49 1336.77 1042.17 1332.73 1039.51 1329.94C1036.86 1327.1 1033.24 1325.67 1028.64 1325.67C1023.99 1325.67 1020.26 1327.13 1017.48 1330.04C1014.76 1332.95 1013.41 1337.19 1013.41 1342.76V1372.16H1004.57V1318.98H1013.41V1326.55C1015.15 1323.83 1017.51 1321.73 1020.49 1320.24C1023.53 1318.75 1026.86 1318.01 1030.49 1318.01ZM1104.95 1351.69C1101.65 1351.69 1098.84 1350.55 1096.51 1348.29C1094.25 1345.96 1093.11 1343.14 1093.11 1339.84C1093.11 1336.48 1094.25 1333.67 1096.51 1331.4C1098.84 1329.07 1101.65 1327.91 1104.95 1327.91C1108.32 1327.91 1111.17 1329.07 1113.5 1331.4C1115.82 1333.67 1116.99 1336.48 1116.99 1339.84C1116.99 1343.14 1115.82 1345.96 1113.5 1348.29C1111.17 1350.55 1108.32 1351.69 1104.95 1351.69ZM1167.24 1311.7V1334.31H1191.89V1341.59H1167.24V1364.88H1194.8V1372.16H1158.4V1304.42H1194.8V1311.7H1167.24ZM1272.12 1318.01C1276.27 1318.01 1279.95 1318.88 1283.19 1320.63C1286.42 1322.31 1288.98 1324.87 1290.86 1328.29C1292.73 1331.72 1293.67 1335.9 1293.67 1340.81V1372.16H1284.94V1342.08C1284.94 1336.77 1283.61 1332.73 1280.96 1329.94C1278.37 1327.1 1274.84 1325.67 1270.38 1325.67C1265.78 1325.67 1262.13 1327.16 1259.41 1330.14C1256.69 1333.05 1255.33 1337.29 1255.33 1342.85V1372.16H1246.6V1342.08C1246.6 1336.77 1245.27 1332.73 1242.62 1329.94C1240.03 1327.1 1236.51 1325.67 1232.04 1325.67C1227.45 1325.67 1223.79 1327.16 1221.07 1330.14C1218.36 1333.05 1217 1337.29 1217 1342.85V1372.16H1208.16V1318.98H1217V1326.64C1218.74 1323.86 1221.07 1321.73 1223.98 1320.24C1226.96 1318.75 1230.23 1318.01 1233.79 1318.01C1238.25 1318.01 1242.2 1319.01 1245.63 1321.02C1249.06 1323.02 1251.61 1325.97 1253.3 1329.85C1254.78 1326.09 1257.24 1323.18 1260.67 1321.11C1264.1 1319.04 1267.92 1318.01 1272.12 1318.01ZM1316.99 1328.78C1318.74 1325.74 1321.33 1323.22 1324.76 1321.21C1328.25 1319.14 1332.29 1318.1 1336.89 1318.1C1341.61 1318.1 1345.88 1319.24 1349.7 1321.5C1353.58 1323.77 1356.62 1326.97 1358.82 1331.11C1361.02 1335.19 1362.12 1339.94 1362.12 1345.38C1362.12 1350.75 1361.02 1355.54 1358.82 1359.74C1356.62 1363.95 1353.58 1367.21 1349.7 1369.54C1345.88 1371.87 1341.61 1373.04 1336.89 1373.04C1332.36 1373.04 1328.35 1372.03 1324.85 1370.03C1321.42 1367.96 1318.8 1365.4 1316.99 1362.36V1397.4H1308.16V1318.98H1316.99V1328.78ZM1353.1 1345.38C1353.1 1341.36 1352.29 1337.87 1350.67 1334.89C1349.05 1331.92 1346.85 1329.65 1344.07 1328.1C1341.35 1326.55 1338.34 1325.77 1335.04 1325.77C1331.81 1325.77 1328.8 1326.58 1326.02 1328.2C1323.3 1329.75 1321.1 1332.05 1319.42 1335.09C1317.8 1338.06 1316.99 1341.53 1316.99 1345.47C1316.99 1349.49 1317.8 1353.01 1319.42 1356.05C1321.1 1359.03 1323.3 1361.33 1326.02 1362.94C1328.8 1364.5 1331.81 1365.27 1335.04 1365.27C1338.34 1365.27 1341.35 1364.5 1344.07 1362.94C1346.85 1361.33 1349.05 1359.03 1350.67 1356.05C1352.29 1353.01 1353.1 1349.45 1353.1 1345.38ZM1396.94 1373.04C1391.96 1373.04 1387.43 1371.91 1383.36 1369.64C1379.34 1367.38 1376.17 1364.17 1373.84 1360.03C1371.58 1355.83 1370.45 1350.97 1370.45 1345.47C1370.45 1340.04 1371.61 1335.25 1373.94 1331.11C1376.34 1326.9 1379.57 1323.7 1383.65 1321.5C1387.72 1319.24 1392.29 1318.1 1397.33 1318.1C1402.38 1318.1 1406.94 1319.24 1411.02 1321.5C1415.09 1323.7 1418.3 1326.87 1420.63 1331.01C1423.02 1335.15 1424.22 1339.97 1424.22 1345.47C1424.22 1350.97 1422.99 1355.83 1420.53 1360.03C1418.13 1364.17 1414.87 1367.38 1410.73 1369.64C1406.59 1371.91 1401.99 1373.04 1396.94 1373.04ZM1396.94 1365.27C1400.11 1365.27 1403.09 1364.53 1405.87 1363.04C1408.66 1361.55 1410.89 1359.32 1412.57 1356.34C1414.32 1353.37 1415.19 1349.74 1415.19 1345.47C1415.19 1341.2 1414.35 1337.58 1412.67 1334.6C1410.99 1331.63 1408.79 1329.43 1406.07 1328C1403.35 1326.52 1400.41 1325.77 1397.24 1325.77C1394 1325.77 1391.02 1326.52 1388.31 1328C1385.65 1329.43 1383.52 1331.63 1381.9 1334.6C1380.28 1337.58 1379.47 1341.2 1379.47 1345.47C1379.47 1349.81 1380.25 1353.46 1381.8 1356.44C1383.42 1359.42 1385.56 1361.65 1388.21 1363.14C1390.86 1364.56 1393.77 1365.27 1396.94 1365.27ZM1506.68 1318.98L1490.08 1372.16H1480.96L1468.15 1329.94L1455.34 1372.16H1446.21L1429.52 1318.98H1438.55L1450.78 1363.62L1463.98 1318.98H1473L1485.91 1363.72L1497.95 1318.98H1506.68ZM1563.97 1343.53C1563.97 1345.21 1563.88 1346.99 1563.68 1348.87H1521.17C1521.5 1354.11 1523.28 1358.22 1526.51 1361.2C1529.81 1364.11 1533.79 1365.56 1538.45 1365.56C1542.27 1365.56 1545.44 1364.69 1547.96 1362.94C1550.55 1361.13 1552.36 1358.74 1553.4 1355.76H1562.91C1561.48 1360.87 1558.64 1365.05 1554.37 1368.28C1550.1 1371.45 1544.79 1373.04 1538.45 1373.04C1533.4 1373.04 1528.87 1371.91 1524.86 1369.64C1520.91 1367.38 1517.81 1364.17 1515.54 1360.03C1513.28 1355.83 1512.15 1350.97 1512.15 1345.47C1512.15 1339.97 1513.25 1335.15 1515.45 1331.01C1517.65 1326.87 1520.72 1323.7 1524.67 1321.5C1528.68 1319.24 1533.27 1318.1 1538.45 1318.1C1543.5 1318.1 1547.96 1319.2 1551.84 1321.4C1555.72 1323.6 1558.7 1326.64 1560.77 1330.53C1562.91 1334.34 1563.97 1338.68 1563.97 1343.53ZM1554.85 1341.69C1554.85 1338.32 1554.11 1335.44 1552.62 1333.05C1551.13 1330.59 1549.09 1328.75 1546.5 1327.52C1543.98 1326.22 1541.17 1325.58 1538.06 1325.58C1533.6 1325.58 1529.78 1327 1526.61 1329.85C1523.5 1332.69 1521.72 1336.64 1521.27 1341.69H1554.85ZM1584.46 1327.62C1586.02 1324.57 1588.22 1322.21 1591.06 1320.53C1593.98 1318.85 1597.5 1318.01 1601.64 1318.01V1327.13H1599.31C1589.41 1327.13 1584.46 1332.5 1584.46 1343.24V1372.16H1575.63V1318.98H1584.46V1327.62Z" fill="white"/>
<defs>
<clipPath id="clip0_268_54">
<rect width="2600.18" height="385.965" fill="white" transform="translate(1665.74 1062.02)"/>
</clipPath>
</defs>
</svg>
